Coordinates
version=1
nRows=19
nColumns=33
inDegrees=yes

Units are S.I. units (second, meters, Newtons, ...)
Angles are in degrees.

endheader
time	ground_thorax_rot_x	ground_thorax_rot_y	ground_thorax_rot_z	ground_thorax_tx	ground_thorax_ty	ground_thorax_tz	clav_prot_r	clav_elev_r	scapula_abduction_r	scapula_elevation_r	scapula_upward_rot_r	scapula_winging_r	shoulder_elv_r	plane_of_elev_r	axial_rot_r	elbow_flexion_r	pro_sup_r	wrist_flex_r	wrist_dev_r	clav_prot_l	clav_elev_l	scapula_abduction_l	scapula_elevation_l	scapula_upward_rot_l	scapula_winging_l	shoulder_elv_l	plane_of_elev_l	axial_rot_l	elbow_flexion_l	pro_sup_l	wrist_flex_l	wrist_dev_l	
10.1700	-38.889697	-4.189690	6.586491	-80.801846	851.948923	-39.262047	21.736181	-45.000000	33.939337	-45.000000	-44.989080	1706.549661	1513.730371	23.899711	180.000000	1789.154478	23.397726	5.834600	-1.344300	3.029235	28.770912	-28.876740	-45.000000	-45.000000	2235.422931	-3860.345783	20.223316	-180.000000	704.030213	-52.772130	-1.765755	-11.220288	
10.1800	-38.858065	-4.222100	6.640661	-80.627730	851.651101	-39.394240	21.713386	-45.000000	33.916723	-45.000000	-44.975754	1706.534678	1513.739265	23.907920	180.000000	1789.094013	22.825771	5.919064	-1.351432	3.022601	28.765685	-28.858968	-45.000000	-45.000000	2235.405326	-3860.333425	20.226191	-180.000000	704.021509	-52.858051	-1.738846	-11.223946	
10.1900	-38.819509	-4.251701	6.687805	-80.439826	851.356471	-39.526893	21.680238	-45.000000	33.915503	-45.000000	-44.956715	1706.490717	1513.739605	23.942263	180.000000	1789.044245	22.232228	6.002186	-1.324196	3.007403	28.715905	-28.864127	-45.000000	-45.000000	2235.359160	-3860.353332	20.190903	-180.000000	703.991900	-52.946789	-1.571147	-11.178800	
10.2000	-38.786437	-4.298870	6.740339	-80.225199	851.064531	-39.658660	21.670975	-45.000000	33.912592	-45.000000	-44.928774	1706.460004	1513.746855	23.962648	180.000000	1788.980774	21.614843	6.091455	-1.323552	2.993353	28.700773	-28.857837	-45.000000	-45.000000	2235.344856	-3860.359821	20.179631	-180.000000	703.976682	-53.034621	-1.503697	-11.157139	
10.2100	-38.753811	-4.360794	6.803241	-79.978083	850.779683	-39.791521	21.670203	-45.000000	33.914544	-45.000000	-44.899495	1706.428910	1513.758881	23.974260	180.000000	1788.905678	20.986017	6.183554	-1.325808	2.978652	28.697109	-28.858956	-45.000000	-45.000000	2235.344464	-3860.375993	20.170508	-180.000000	703.966095	-53.115216	-1.464340	-11.133730	
10.2200	-38.720479	-4.426129	6.865915	-79.690816	850.505901	-39.927251	21.679566	-45.000000	33.919351	-45.000000	-44.857922	1706.391433	1513.776004	23.990243	180.000000	1788.825584	20.354860	6.273335	-1.332859	2.964541	28.697755	-28.857769	-45.000000	-45.000000	2235.348313	-3860.381591	20.170517	-180.000000	703.956522	-53.183277	-1.437041	-11.112352	
10.2300	-38.687991	-4.498643	6.932586	-79.357752	850.247253	-40.068373	21.689968	-45.000000	33.927042	-45.000000	-44.803237	1706.357053	1513.800144	23.999894	180.000000	1788.739737	19.737723	6.363539	-1.340364	2.954334	28.707034	-28.865802	-45.000000	-45.000000	2235.361207	-3860.390768	20.174397	-180.000000	703.949754	-53.228800	-1.433115	-11.088613	
10.2400	-38.651145	-4.563379	6.980541	-78.974685	850.006773	-40.217339	21.696676	-45.000000	33.955180	-45.000000	-44.726767	1706.315463	1513.829708	24.016911	180.000000	1788.645083	19.148090	6.441045	-1.346186	2.948386	28.710400	-28.878259	-45.000000	-45.000000	2235.360428	-3860.397466	20.181653	-180.000000	703.948273	-53.244167	-1.411841	-11.065030	
10.2500	-38.617257	-4.629975	7.022421	-78.538056	849.785148	-40.376010	21.700036	-45.000000	33.983751	-45.000000	-44.623797	1706.288546	1513.865830	24.028428	180.000000	1788.552442	18.599338	6.519712	-1.353199	2.949227	28.723388	-28.898601	-45.000000	-45.000000	2235.369405	-3860.403480	20.194672	-180.000000	703.945795	-53.219635	-1.422343	-11.039427	
10.2600	-38.584961	-4.688534	7.049380	-78.044890	849.580656	-40.545653	21.699967	-45.000000	34.023464	-45.000000	-44.487645	1706.261876	1513.899565	24.045695	180.000000	1788.465710	18.094052	6.587991	-1.358788	2.957162	28.730651	-28.921317	-45.000000	-45.000000	2235.372081	-3860.396594	20.209512	-180.000000	703.931636	-53.149707	-1.421183	-11.009991	
10.2700	-38.560339	-4.748932	7.076351	-77.492908	849.389223	-40.726855	21.696222	-45.000000	34.064977	-45.000000	-44.320488	1706.249280	1513.927811	24.052553	180.000000	1788.385675	17.641285	6.658619	-1.360090	2.969910	28.741684	-28.957420	-45.000000	-45.000000	2235.385709	-3860.389670	20.221759	-180.000000	703.902664	-53.027444	-1.437762	-10.967763	
10.2800	-38.536291	-4.807500	7.100437	-76.880392	849.204846	-40.919526	21.689018	-45.000000	34.124940	-45.000000	-44.135194	1706.231913	1513.946901	24.054940	180.000000	1788.300353	17.252897	6.711222	-1.353860	2.988253	28.745472	-28.999210	-45.000000	-45.000000	2235.387939	-3860.380041	20.229521	-180.000000	703.863450	-52.848748	-1.434244	-10.920200	
10.2900	-38.517642	-4.868871	7.131083	-76.205899	849.020026	-41.123045	21.683896	-45.000000	34.181490	-45.000000	-43.935717	1706.224996	1513.958994	24.047765	180.000000	1788.213399	16.946650	6.763295	-1.342483	3.003275	28.753072	-29.044770	-45.000000	-45.000000	2235.398654	-3860.362449	20.240584	-180.000000	703.810436	-52.609749	-1.454022	-10.865053	
10.3000	-38.498205	-4.933826	7.163762	-75.467750	848.826184	-41.336579	21.679377	-45.000000	34.245668	-45.000000	-43.731922	1706.212920	1513.962002	24.044599	180.000000	1788.122680	16.737073	6.793733	-1.321378	3.018990	28.752585	-29.081140	-45.000000	-45.000000	2235.396583	-3860.333199	20.250549	-180.000000	703.744877	-52.305968	-1.451245	-10.805966	
10.3100	-38.478724	-5.013834	7.199529	-74.664120	848.614599	-41.559213	21.681890	-45.000000	34.319476	-45.000000	-43.521989	1706.211658	1513.962140	24.038499	180.000000	1788.029631	16.650787	6.820919	-1.292984	3.019677	28.753824	-29.101325	-45.000000	-45.000000	2235.394230	-3860.296043	20.266616	-180.000000	703.678837	-51.931297	-1.467563	-10.745152	
10.3200	-38.451722	-5.114404	7.241254	-73.792695	848.377140	-41.790242	21.691517	-45.000000	34.409242	-45.000000	-43.317890	1706.208194	1513.960903	24.039482	180.000000	1787.939872	16.723440	6.826451	-1.246013	3.014249	28.746665	-29.100334	-45.000000	-45.000000	2235.372720	-3860.258807	20.280172	-180.000000	703.615697	-51.478721	-1.456245	-10.682326	
10.3300	-38.421632	-5.231545	7.290891	-72.850656	848.106962	-42.029300	21.711467	-45.000000	34.500862	-45.000000	-43.105534	1706.217928	1513.961723	24.038369	180.000000	1787.865587	17.015635	6.837554	-1.183139	2.989276	28.742856	-29.083429	-45.000000	-45.000000	2235.352242	-3860.214661	20.303505	-180.000000	703.555080	-50.939092	-1.474036	-10.622608	
10.3400	-38.388030	-5.336610	7.337167	-71.834694	847.799027	-42.276322	21.727228	-45.000000	34.572962	-45.000000	-42.876735	1706.230170	1513.957975	24.044662	180.000000	1787.815624	17.627048	6.837577	-1.086550	2.971898	28.734004	-29.086065	-45.000000	-45.000000	2235.325973	-3860.179468	20.324179	-180.000000	703.481170	-50.291714	-1.475047	-10.556669	
10.3500	-38.350762	-5.421286	7.371283	-70.741810	847.450557	-42.531165	21.732635	-45.000000	34.641525	-45.000000	-42.615167	1706.248699	1513.950133	24.046560	180.000000	1787.792315	18.715161	6.844670	-0.947385	2.956867	28.729243	-29.115562	-45.000000	-45.000000	2235.300332	-3860.154214	20.348516	-180.000000	703.398020	-49.510168	-1.492366	-10.484241	
